<?xml version="1.0" standalone="no"?>
<!DOCTYPE svg PUBLIC "-//W3C//DTD SVG 20010904//EN"
 "http://www.w3.org/TR/2001/REC-SVG-20010904/DTD/svg10.dtd">
<svg version="1.0" xmlns="http://www.w3.org/2000/svg"
 width="137.000000pt" height="137.000000pt" viewBox="0 0 137.000000 137.000000"
 preserveAspectRatio="xMidYMid meet">
<metadata>
Created by potrace 1.14, written by Peter Selinger 2001-2017
</metadata>
<g transform="translate(0.000000,137.000000) scale(0.100000,-0.100000)"
fill="#000000" stroke="none">
<path d="M130 1022 l0 -119 128 -58 c70 -32 161 -74 202 -92 41 -19 94 -44
117 -56 l43 -21 -103 -41 c-56 -23 -111 -45 -122 -50 -11 -5 -22 -9 -25 -10
-15 -5 -49 -19 -75 -30 -16 -7 -60 -25 -97 -40 l-68 -27 0 -118 0 -119 127 58
c71 31 250 111 398 176 149 65 272 122 275 126 5 7 5 81 1 126 -1 7 -181 102
-401 213 l-400 200 0 -118z"/>
<path d="M1179 377 c-78 -15 -120 -76 -114 -165 4 -53 29 -88 79 -114 54 -27
149 -21 195 13 l31 23 0 96 c0 80 -3 100 -17 112 -44 38 -100 50 -174 35z"/>
</g>
</svg>
